<svg width="100" height="100" viewBox="0 0 100 100" fill="none" xmlns="http://www.w3.org/2000/svg">
<rect width="100" height="100" fill="#F0F0F0"/>
<path d="M50 10C30.147 10 14 26.147 14 46C14 65.853 30.147 82 50 82C69.853 82 86 65.853 86 46C86 26.147 69.853 10 50 10ZM50 18C65.464 18 78 30.536 78 46C78 61.464 65.464 74 50 74C34.536 74 22 61.464 22 46C22 30.536 34.536 18 50 18Z" fill="#333333"/>
<path d="M50 26C44.477 26 40 30.477 40 36C40 41.523 44.477 46 50 46C55.523 46 60 41.523 60 36C60 30.477 55.523 26 50 26ZM50 34C51.104 34 52 34.896 52 36C52 37.104 51.104 38 50 38C48.896 38 48 37.104 48 36C48 34.896 48.896 34 50 34Z" fill="#333333"/>
<path d="M50 54C40.147 54 32 62.147 32 72H68C68 62.147 59.853 54 50 54Z" fill="#333333"/>
</svg>
